<svg width="120" height="120" viewBox="0 0 800 800" fill="none" stroke="" xmlns="http://www.w3.org/2000/svg">
<path d="M585.978 72.2938C536.466 72.2938 488.177 91.1734 450.005 125.456C448.272 127.011 446.897 128.917 445.961 131.048C445.523 132.042 445.091 132.861 444.634 133.553L391.264 214.159C387.647 219.623 387.647 226.72 391.264 232.186L444.634 312.794C448.261 318.27 448.261 325.345 444.636 330.82L391.264 411.433C387.647 416.897 387.647 423.994 391.264 429.459L444.634 510.069C448.261 515.545 448.261 522.62 444.634 528.094L391.261 608.719C387.645 614.183 387.645 621.28 391.263 626.745L438.495 698.094C441.623 702.819 446.813 705.408 452.123 705.408C454.886 705.408 457.684 704.706 460.242 703.237C516.784 670.764 598.813 618.072 668.506 551.452C755.758 468.042 800 385.342 800 305.645C800 176.975 703.991 72.2938 585.978 72.2938ZM457.211 667.208L424.455 617.727L471.861 546.116C482.736 529.691 482.734 508.464 471.859 492.039L424.456 420.442L471.861 348.844C482.736 332.417 482.736 311.192 471.859 294.766L424.456 223.17L471.856 151.581C472.683 150.336 473.45 149.041 474.173 147.673C505.958 120.094 545.536 104.945 585.98 104.945C685.986 104.947 767.348 194.981 767.348 305.645C767.347 464.188 560.242 606.333 457.211 667.208Z" fill="#A0153E"/> 
<path d="M352.102 626.739C348.477 621.264 348.477 614.189 352.102 608.714L405.473 528.091C409.089 522.627 409.089 515.531 405.472 510.066L352.102 429.455C348.475 423.978 348.475 416.903 352.1 411.428L405.472 330.816C409.089 325.352 409.089 318.255 405.472 312.789L352.102 232.18C348.475 226.705 348.475 219.63 352.102 214.155L378.436 174.381C382.294 168.555 382.014 160.917 377.742 155.388C336.945 102.578 277.27 72.2906 214.022 72.2906C96.0094 72.2938 0 176.975 0 305.645C0 396.091 56.5188 489.822 167.988 584.227C253.236 656.428 345.369 707.33 381.022 725.866C383.409 727.106 385.989 727.706 388.545 727.706C393.064 727.706 397.511 725.833 400.689 722.298C405.667 716.767 406.275 708.572 402.167 702.366L352.102 626.739ZM189.089 559.309C85.2844 471.394 32.6531 386.048 32.6531 305.645C32.6531 194.981 114.014 104.947 214.022 104.947C263.434 104.947 310.417 127.205 344.561 166.403L324.877 196.131C313.998 212.559 313.998 233.784 324.877 250.211L372.28 321.806L324.875 393.405C314 409.831 314 431.056 324.877 447.483L372.28 519.081L324.873 590.692C314.002 607.117 314.002 628.341 324.873 644.764V644.766L337.803 664.294C295.733 639.217 241.056 603.32 189.089 559.309Z" fill="#A0153E"/>
</svg>
